<?xml version="1.0" encoding="UTF-8"?><svg xmlns="http://www.w3.org/2000/svg" xmlns:xlink="http://www.w3.org/1999/xlink" fill-opacity="1" color-rendering="auto" color-interpolation="auto" text-rendering="auto" stroke="black" stroke-linecap="square" width="834" stroke-miterlimit="10" shape-rendering="auto" stroke-opacity="1" fill="black" stroke-dasharray="none" font-weight="normal" stroke-width="1" height="558" font-family="'Dialog'" font-style="normal" stroke-linejoin="miter" font-size="12px" stroke-dashoffset="0" image-rendering="auto">
  <!--Generated by ySVG 2.5-->
  <defs id="genericDefs"/>
  <g>
    <defs id="defs1">
      <clipPath clipPathUnits="userSpaceOnUse" id="clipPath1">
        <path d="M0 0 L834 0 L834 558 L0 558 L0 0 Z"/>
      </clipPath>
      <clipPath clipPathUnits="userSpaceOnUse" id="clipPath2">
        <path d="M-3 129 L831 129 L831 687 L-3 687 L-3 129 Z"/>
      </clipPath>
      <clipPath clipPathUnits="userSpaceOnUse" id="clipPath3">
        <path d="M41 377 L41 480 L172 480 L172 377 Z"/>
      </clipPath>
      <clipPath clipPathUnits="userSpaceOnUse" id="clipPath4">
        <path d="M12 533 L12 636 L201 636 L201 533 Z"/>
      </clipPath>
      <clipPath clipPathUnits="userSpaceOnUse" id="clipPath5">
        <path d="M311 338 L311 400 L436 400 L436 338 Z"/>
      </clipPath>
      <clipPath clipPathUnits="userSpaceOnUse" id="clipPath6">
        <path d="M379 440 L379 527 L517 527 L517 440 Z"/>
      </clipPath>
      <clipPath clipPathUnits="userSpaceOnUse" id="clipPath7">
        <path d="M477 338 L477 400 L615 400 L615 338 Z"/>
      </clipPath>
      <clipPath clipPathUnits="userSpaceOnUse" id="clipPath8">
        <path d="M347 144 L347 231 L549 231 L549 144 Z"/>
      </clipPath>
      <clipPath clipPathUnits="userSpaceOnUse" id="clipPath9">
        <path d="M471 585 L471 636 L622 636 L622 585 Z"/>
      </clipPath>
      <clipPath clipPathUnits="userSpaceOnUse" id="clipPath10">
        <path d="M319 585 L319 636 L450 636 L450 585 Z"/>
      </clipPath>
      <clipPath clipPathUnits="userSpaceOnUse" id="clipPath11">
        <path d="M663 550 L663 670 L814 670 L814 550 Z"/>
      </clipPath>
    </defs>
    <g fill="white" text-rendering="geometricPrecision" shape-rendering="geometricPrecision" transform="matrix(1,0,0,1,3,-129)" stroke="white">
      <rect x="42" width="129" height="101" y="378" clip-path="url(#clipPath2)" stroke="none"/>
    </g>
    <g fill="white" text-rendering="geometricPrecision" shape-rendering="geometricPrecision" transform="matrix(1,0,0,1,3,-129)" stroke="white">
      <rect x="41" width="1" height="103" y="377" clip-path="url(#clipPath2)" stroke="none"/>
      <rect x="42" width="129" height="1" y="377" clip-path="url(#clipPath2)" stroke="none"/>
      <rect x="42" y="479" clip-path="url(#clipPath2)" fill="rgb(178,178,178)" width="130" height="1" stroke="none"/>
      <rect x="171" y="377" clip-path="url(#clipPath2)" fill="rgb(178,178,178)" width="1" height="102" stroke="none"/>
    </g>
    <g font-size="13px" stroke-linecap="butt" transform="matrix(1,0,0,1,3,-129)" text-rendering="geometricPrecision" font-family="sans-serif" shape-rendering="geometricPrecision" font-weight="bold" stroke-miterlimit="1.45">
      <text x="91.8375" xml:space="preserve" y="394.2661" clip-path="url(#clipPath3)" stroke="none">User</text>
    </g>
    <g text-rendering="geometricPrecision" shape-rendering="geometricPrecision" transform="matrix(1,0,0,1,3,-129)">
      <line y2="401" fill="none" x1="42" clip-path="url(#clipPath3)" x2="171" y1="401"/>
      <text stroke-linecap="butt" x="46.487" y="417.6098" clip-path="url(#clipPath3)" font-family="sans-serif" stroke="none" stroke-miterlimit="1.45" xml:space="preserve">ID:INT</text>
      <text stroke-linecap="butt" x="46.487" y="431.7426" clip-path="url(#clipPath3)" font-family="sans-serif" stroke="none" stroke-miterlimit="1.45" xml:space="preserve">RFID:BINARY(20)</text>
      <text stroke-linecap="butt" x="46.487" y="445.8754" clip-path="url(#clipPath3)" font-family="sans-serif" stroke="none" stroke-miterlimit="1.45" xml:space="preserve">BALANCE:DECIMAL</text>
      <text stroke-linecap="butt" x="46.487" y="460.0082" clip-path="url(#clipPath3)" font-family="sans-serif" stroke="none" stroke-miterlimit="1.45" xml:space="preserve">LAST_SEEN:DATE</text>
      <text stroke-linecap="butt" x="46.487" y="474.1411" clip-path="url(#clipPath3)" font-family="sans-serif" stroke="none" stroke-miterlimit="1.45" xml:space="preserve"> </text>
      <line y2="481" fill="none" x1="42" clip-path="url(#clipPath3)" x2="171" y1="481"/>
      <rect x="13" y="534" clip-path="url(#clipPath2)" fill="white" width="187" height="101" stroke="none"/>
      <rect x="12" y="533" clip-path="url(#clipPath2)" fill="white" width="1" height="103" stroke="none"/>
      <rect x="13" y="533" clip-path="url(#clipPath2)" fill="white" width="187" height="1" stroke="none"/>
      <rect x="13" y="635" clip-path="url(#clipPath2)" fill="rgb(178,178,178)" width="188" height="1" stroke="none"/>
      <rect x="200" y="533" clip-path="url(#clipPath2)" fill="rgb(178,178,178)" width="1" height="102" stroke="none"/>
    </g>
    <g font-size="13px" stroke-linecap="butt" transform="matrix(1,0,0,1,3,-129)" text-rendering="geometricPrecision" font-family="sans-serif" shape-rendering="geometricPrecision" font-weight="bold" stroke-miterlimit="1.45">
      <text x="85.2836" xml:space="preserve" y="550.8536" clip-path="url(#clipPath4)" stroke="none">Admin</text>
    </g>
    <g text-rendering="geometricPrecision" shape-rendering="geometricPrecision" transform="matrix(1,0,0,1,3,-129)">
      <line y2="558" fill="none" x1="13" clip-path="url(#clipPath4)" x2="200" y1="558"/>
      <text stroke-linecap="butt" x="17.1473" y="575.1973" clip-path="url(#clipPath4)" font-family="sans-serif" stroke="none" stroke-miterlimit="1.45" xml:space="preserve">ID:INT</text>
      <text stroke-linecap="butt" x="17.1473" y="589.3301" clip-path="url(#clipPath4)" font-family="sans-serif" stroke="none" stroke-miterlimit="1.45" xml:space="preserve">USER_ID:INT</text>
      <text stroke-linecap="butt" x="17.1473" y="603.463" clip-path="url(#clipPath4)" font-family="sans-serif" stroke="none" stroke-miterlimit="1.45" xml:space="preserve">USER_NAME:VARCHAR</text>
      <text stroke-linecap="butt" x="17.1473" y="617.5958" clip-path="url(#clipPath4)" font-family="sans-serif" stroke="none" stroke-miterlimit="1.45" xml:space="preserve">PASSWORD:BINARY(64)</text>
      <text stroke-linecap="butt" x="17.1473" y="631.7286" clip-path="url(#clipPath4)" font-family="sans-serif" stroke="none" stroke-miterlimit="1.45" xml:space="preserve">PASSWORD_SALT:(BINARY(64)</text>
      <line y2="639" fill="none" x1="13" clip-path="url(#clipPath4)" x2="200" y1="639"/>
      <rect x="312" y="339" clip-path="url(#clipPath2)" fill="white" width="123" height="60" stroke="none"/>
      <rect x="311" y="338" clip-path="url(#clipPath2)" fill="white" width="1" height="62" stroke="none"/>
      <rect x="312" y="338" clip-path="url(#clipPath2)" fill="white" width="123" height="1" stroke="none"/>
      <rect x="312" y="399" clip-path="url(#clipPath2)" fill="rgb(178,178,178)" width="124" height="1" stroke="none"/>
      <rect x="435" y="338" clip-path="url(#clipPath2)" fill="rgb(178,178,178)" width="1" height="61" stroke="none"/>
    </g>
    <g font-size="13px" stroke-linecap="butt" transform="matrix(1,0,0,1,3,-129)" text-rendering="geometricPrecision" font-family="sans-serif" shape-rendering="geometricPrecision" font-weight="bold" stroke-miterlimit="1.45">
      <text x="348.6998" xml:space="preserve" y="356.1332" clip-path="url(#clipPath5)" stroke="none">Deposit</text>
    </g>
    <g text-rendering="geometricPrecision" shape-rendering="geometricPrecision" transform="matrix(1,0,0,1,3,-129)">
      <line y2="363" fill="none" x1="312" clip-path="url(#clipPath5)" x2="436" y1="363"/>
      <text stroke-linecap="butt" x="316.8667" y="380.477" clip-path="url(#clipPath5)" font-family="sans-serif" stroke="none" stroke-miterlimit="1.45" xml:space="preserve">AMOUNT:DECIMAL</text>
      <text stroke-linecap="butt" x="316.8667" y="394.6098" clip-path="url(#clipPath5)" font-family="sans-serif" stroke="none" stroke-miterlimit="1.45" xml:space="preserve">RECIPIENT_ID:INT</text>
      <line y2="402" fill="none" x1="312" clip-path="url(#clipPath5)" x2="436" y1="402"/>
      <rect x="380" y="441" clip-path="url(#clipPath2)" fill="white" width="136" height="85" stroke="none"/>
      <rect x="379" y="440" clip-path="url(#clipPath2)" fill="white" width="1" height="87" stroke="none"/>
      <rect x="380" y="440" clip-path="url(#clipPath2)" fill="white" width="136" height="1" stroke="none"/>
      <rect x="380" y="526" clip-path="url(#clipPath2)" fill="rgb(178,178,178)" width="137" height="1" stroke="none"/>
      <rect x="516" y="440" clip-path="url(#clipPath2)" fill="rgb(178,178,178)" width="1" height="86" stroke="none"/>
      <text stroke-linecap="butt" x="406.4972" y="456.7506" clip-path="url(#clipPath6)" font-family="sans-serif" stroke="none" stroke-miterlimit="1.45" xml:space="preserve">&lt;&lt;abstract&gt;&gt;</text>
    </g>
    <g font-size="13px" stroke-linecap="butt" transform="matrix(1,0,0,1,3,-129)" text-rendering="geometricPrecision" font-family="sans-serif" shape-rendering="geometricPrecision" font-weight="bold" stroke-miterlimit="1.45">
      <text x="420.391" xml:space="preserve" y="480.8503" clip-path="url(#clipPath6)" stroke="none">Transfer</text>
    </g>
    <g text-rendering="geometricPrecision" shape-rendering="geometricPrecision" transform="matrix(1,0,0,1,3,-129)">
      <line y2="488" fill="none" x1="380" clip-path="url(#clipPath6)" x2="517" y1="488"/>
      <text stroke-linecap="butt" x="384.8563" y="505.194" clip-path="url(#clipPath6)" font-family="sans-serif" stroke="none" stroke-miterlimit="1.45" xml:space="preserve">SENDER_ID:INT</text>
      <text stroke-linecap="butt" x="384.8563" y="519.3268" clip-path="url(#clipPath6)" font-family="sans-serif" stroke="none" stroke-miterlimit="1.45" xml:space="preserve">RECIPIENT_ID:INT</text>
      <line y2="526" fill="none" x1="380" clip-path="url(#clipPath6)" x2="517" y1="526"/>
      <rect x="478" y="339" clip-path="url(#clipPath2)" fill="white" width="136" height="60" stroke="none"/>
      <rect x="477" y="338" clip-path="url(#clipPath2)" fill="white" width="1" height="62" stroke="none"/>
      <rect x="478" y="338" clip-path="url(#clipPath2)" fill="white" width="136" height="1" stroke="none"/>
      <rect x="478" y="399" clip-path="url(#clipPath2)" fill="rgb(178,178,178)" width="137" height="1" stroke="none"/>
      <rect x="614" y="338" clip-path="url(#clipPath2)" fill="rgb(178,178,178)" width="1" height="61" stroke="none"/>
    </g>
    <g font-size="13px" stroke-linecap="butt" transform="matrix(1,0,0,1,3,-129)" text-rendering="geometricPrecision" font-family="sans-serif" shape-rendering="geometricPrecision" font-weight="bold" stroke-miterlimit="1.45">
      <text x="515.4222" xml:space="preserve" y="356.1332" clip-path="url(#clipPath7)" stroke="none">Withdraw</text>
    </g>
    <g text-rendering="geometricPrecision" shape-rendering="geometricPrecision" transform="matrix(1,0,0,1,3,-129)">
      <line y2="363" fill="none" x1="478" clip-path="url(#clipPath7)" x2="615" y1="363"/>
      <text stroke-linecap="butt" x="482.8074" y="380.477" clip-path="url(#clipPath7)" font-family="sans-serif" stroke="none" stroke-miterlimit="1.45" xml:space="preserve">AMOUNT:DECIMAL</text>
      <text stroke-linecap="butt" x="482.8074" y="394.6098" clip-path="url(#clipPath7)" font-family="sans-serif" stroke="none" stroke-miterlimit="1.45" xml:space="preserve">WITHDRAWER_ID:INT</text>
      <line y2="402" fill="none" x1="478" clip-path="url(#clipPath7)" x2="615" y1="402"/>
      <rect x="348" y="145" clip-path="url(#clipPath2)" fill="white" width="200" height="85" stroke="none"/>
      <rect x="347" y="144" clip-path="url(#clipPath2)" fill="white" width="1" height="87" stroke="none"/>
      <rect x="348" y="144" clip-path="url(#clipPath2)" fill="white" width="200" height="1" stroke="none"/>
      <rect x="348" y="230" clip-path="url(#clipPath2)" fill="rgb(178,178,178)" width="201" height="1" stroke="none"/>
      <rect x="548" y="144" clip-path="url(#clipPath2)" fill="rgb(178,178,178)" width="1" height="86" stroke="none"/>
      <text stroke-linecap="butt" x="406.4972" y="161.1672" clip-path="url(#clipPath8)" font-family="sans-serif" stroke="none" stroke-miterlimit="1.45" xml:space="preserve">&lt;&lt;abstract&gt;&gt;</text>
    </g>
    <g font-size="13px" stroke-linecap="butt" transform="matrix(1,0,0,1,3,-129)" text-rendering="geometricPrecision" font-family="sans-serif" shape-rendering="geometricPrecision" font-weight="bold" stroke-miterlimit="1.45">
      <text x="409.4" xml:space="preserve" y="185.2668" clip-path="url(#clipPath8)" stroke="none">Transaction</text>
    </g>
    <g text-rendering="geometricPrecision" shape-rendering="geometricPrecision" transform="matrix(1,0,0,1,3,-129)">
      <line y2="193" fill="none" x1="348" clip-path="url(#clipPath8)" x2="549" y1="193"/>
      <text stroke-linecap="butt" x="352.6568" y="209.6106" clip-path="url(#clipPath8)" font-family="sans-serif" stroke="none" stroke-miterlimit="1.45" xml:space="preserve">ID:INT</text>
      <text stroke-linecap="butt" x="352.6568" y="223.7434" clip-path="url(#clipPath8)" font-family="sans-serif" stroke="none" stroke-miterlimit="1.45" xml:space="preserve">TIME:DATETIME</text>
      <line y2="231" fill="none" x1="348" clip-path="url(#clipPath8)" x2="549" y1="231"/>
      <rect x="472" y="586" clip-path="url(#clipPath2)" fill="white" width="149" height="49" stroke="none"/>
      <rect x="471" y="585" clip-path="url(#clipPath2)" fill="white" width="1" height="51" stroke="none"/>
      <rect x="472" y="585" clip-path="url(#clipPath2)" fill="white" width="149" height="1" stroke="none"/>
      <rect x="472" y="635" clip-path="url(#clipPath2)" fill="rgb(178,178,178)" width="150" height="1" stroke="none"/>
      <rect x="621" y="585" clip-path="url(#clipPath2)" fill="rgb(178,178,178)" width="1" height="50" stroke="none"/>
    </g>
    <g font-size="13px" stroke-linecap="butt" transform="matrix(1,0,0,1,3,-129)" text-rendering="geometricPrecision" font-family="sans-serif" shape-rendering="geometricPrecision" font-weight="bold" stroke-miterlimit="1.45">
      <text x="516.7615" xml:space="preserve" y="603.0432" clip-path="url(#clipPath9)" stroke="none">Purchase</text>
    </g>
    <g text-rendering="geometricPrecision" shape-rendering="geometricPrecision" transform="matrix(1,0,0,1,3,-129)">
      <line y2="610" fill="none" x1="472" clip-path="url(#clipPath9)" x2="621" y1="610"/>
      <text stroke-linecap="butt" x="476.0749" y="627.387" clip-path="url(#clipPath9)" font-family="sans-serif" stroke="none" stroke-miterlimit="1.45" xml:space="preserve">Products:+PRODUCT_ID</text>
      <line y2="634" fill="none" x1="472" clip-path="url(#clipPath9)" x2="621" y1="634"/>
      <rect x="320" y="586" clip-path="url(#clipPath2)" fill="white" width="129" height="49" stroke="none"/>
      <rect x="319" y="585" clip-path="url(#clipPath2)" fill="white" width="1" height="51" stroke="none"/>
      <rect x="320" y="585" clip-path="url(#clipPath2)" fill="white" width="129" height="1" stroke="none"/>
      <rect x="320" y="635" clip-path="url(#clipPath2)" fill="rgb(178,178,178)" width="130" height="1" stroke="none"/>
      <rect x="449" y="585" clip-path="url(#clipPath2)" fill="rgb(178,178,178)" width="1" height="50" stroke="none"/>
    </g>
    <g font-size="13px" stroke-linecap="butt" transform="matrix(1,0,0,1,3,-129)" text-rendering="geometricPrecision" font-family="sans-serif" shape-rendering="geometricPrecision" font-weight="bold" stroke-miterlimit="1.45">
      <text x="331.0289" xml:space="preserve" y="603.0432" clip-path="url(#clipPath10)" stroke="none">Money_Transfer</text>
    </g>
    <g text-rendering="geometricPrecision" shape-rendering="geometricPrecision" transform="matrix(1,0,0,1,3,-129)">
      <line y2="610" fill="none" x1="320" clip-path="url(#clipPath10)" x2="449" y1="610"/>
      <text stroke-linecap="butt" x="324.2849" y="627.387" clip-path="url(#clipPath10)" font-family="sans-serif" stroke="none" stroke-miterlimit="1.45" xml:space="preserve">AMOUNT:DECIMAL</text>
      <line y2="634" fill="none" x1="320" clip-path="url(#clipPath10)" x2="449" y1="634"/>
      <rect x="664" y="551" clip-path="url(#clipPath2)" fill="white" width="149" height="118" stroke="none"/>
      <rect x="663" y="550" clip-path="url(#clipPath2)" fill="white" width="1" height="120" stroke="none"/>
      <rect x="664" y="550" clip-path="url(#clipPath2)" fill="white" width="149" height="1" stroke="none"/>
      <rect x="664" y="669" clip-path="url(#clipPath2)" fill="rgb(178,178,178)" width="150" height="1" stroke="none"/>
      <rect x="813" y="550" clip-path="url(#clipPath2)" fill="rgb(178,178,178)" width="1" height="119" stroke="none"/>
    </g>
    <g font-size="13px" stroke-linecap="butt" transform="matrix(1,0,0,1,3,-129)" text-rendering="geometricPrecision" font-family="sans-serif" shape-rendering="geometricPrecision" font-weight="bold" stroke-miterlimit="1.45">
      <text x="713.9614" xml:space="preserve" y="568.1507" clip-path="url(#clipPath11)" stroke="none">Product</text>
    </g>
    <g text-rendering="geometricPrecision" shape-rendering="geometricPrecision" transform="matrix(1,0,0,1,3,-129)">
      <line y2="575" fill="none" x1="664" clip-path="url(#clipPath11)" x2="814" y1="575"/>
      <text stroke-linecap="butt" x="668.7933" y="592.4944" clip-path="url(#clipPath11)" font-family="sans-serif" stroke="none" stroke-miterlimit="1.45" xml:space="preserve">ID:INT</text>
      <text stroke-linecap="butt" x="668.7933" y="606.6273" clip-path="url(#clipPath11)" font-family="sans-serif" stroke="none" stroke-miterlimit="1.45" xml:space="preserve">NAME:VARCHAR</text>
      <text stroke-linecap="butt" x="668.7933" y="620.7601" clip-path="url(#clipPath11)" font-family="sans-serif" stroke="none" stroke-miterlimit="1.45" xml:space="preserve">AVAILABLE:INT</text>
      <text stroke-linecap="butt" x="668.7933" y="634.8929" clip-path="url(#clipPath11)" font-family="sans-serif" stroke="none" stroke-miterlimit="1.45" xml:space="preserve">REORDER_LEVEL:INT</text>
      <text stroke-linecap="butt" x="668.7933" y="649.0257" clip-path="url(#clipPath11)" font-family="sans-serif" stroke="none" stroke-miterlimit="1.45" xml:space="preserve">PRICE:DECIMAL</text>
      <text stroke-linecap="butt" x="668.7933" y="663.1585" clip-path="url(#clipPath11)" font-family="sans-serif" stroke="none" stroke-miterlimit="1.45" xml:space="preserve">IMAGE:URL</text>
      <line y2="670" fill="none" x1="664" clip-path="url(#clipPath11)" x2="814" y1="670"/>
      <path fill="none" stroke-miterlimit="1.45" d="M107.0624 533.2581 L107.0624 496.0342" clip-path="url(#clipPath2)" stroke-linecap="butt"/>
    </g>
    <g stroke-linecap="butt" transform="matrix(1,0,0,1,3,-129)" fill="white" text-rendering="geometricPrecision" shape-rendering="geometricPrecision" stroke="white" stroke-miterlimit="1.45">
      <path d="M107.0624 481.0342 L101.0624 497.0342 L113.0624 497.0342 Z" stroke="none" clip-path="url(#clipPath2)"/>
      <path fill="none" d="M107.0624 481.0342 L101.0624 497.0342 L113.0624 497.0342 Z" clip-path="url(#clipPath2)" stroke="black"/>
      <path fill="none" d="M172.6595 429.3684 L374.5443 429.3684 L374.5443 400.6171" clip-path="url(#clipPath2)" stroke="black"/>
      <path fill="none" d="M172.6826 429.3684 L291.2847 429.3684 L291.2847 484.1384 L379.8372 484.1384" clip-path="url(#clipPath2)" stroke="black"/>
      <path fill="none" d="M172.6617 429.3684 L547.0049 429.3684 L547.0049 400.6171" clip-path="url(#clipPath2)" stroke="black"/>
      <path fill="none" d="M387.2961 338.6064 L425.2366 246.423" clip-path="url(#clipPath2)" stroke="black"/>
      <path d="M430.9456 232.552 L419.3076 245.0642 L430.4044 249.6314 Z" clip-path="url(#clipPath2)" stroke="none"/>
      <path fill="none" d="M430.9456 232.552 L419.3076 245.0642 L430.4044 249.6314 Z" clip-path="url(#clipPath2)" stroke="black"/>
      <path fill="none" d="M449.0538 440.1544 L449.0538 247.5664" clip-path="url(#clipPath2)" stroke="black"/>
      <path d="M449.0538 232.5664 L443.0538 248.5664 L455.0538 248.5664 Z" clip-path="url(#clipPath2)" stroke="none"/>
      <path fill="none" d="M449.0538 232.5664 L443.0538 248.5664 L455.0538 248.5664 Z" clip-path="url(#clipPath2)" stroke="black"/>
      <path fill="none" d="M530.2294 338.5844 L479.9937 245.7382" clip-path="url(#clipPath2)" stroke="black"/>
      <path d="M472.8555 232.5455 L475.1924 249.4729 L485.7466 243.7625 Z" clip-path="url(#clipPath2)" stroke="none"/>
      <path fill="none" d="M472.8555 232.5455 L475.1924 249.4729 L485.7466 243.7625 Z" clip-path="url(#clipPath2)" stroke="black"/>
      <path fill="none" d="M527.276 585.4885 L492.1544 539.9825" clip-path="url(#clipPath2)" stroke="black"/>
      <path d="M482.9896 528.1079 L488.0156 544.4401 L497.5152 537.1082 Z" clip-path="url(#clipPath2)" stroke="none"/>
      <path fill="none" d="M482.9896 528.1079 L488.0156 544.4401 L497.5152 537.1082 Z" clip-path="url(#clipPath2)" stroke="black"/>
      <path fill="none" d="M397.7899 585.4885 L420.0432 541.493" clip-path="url(#clipPath2)" stroke="black"/>
      <path d="M426.8136 528.1079 L414.2378 539.6772 L424.9459 545.0936 Z" clip-path="url(#clipPath2)" stroke="none"/>
      <path fill="none" d="M426.8136 528.1079 L414.2378 539.6772 L424.9459 545.0936 Z" clip-path="url(#clipPath2)" stroke="black"/>
      <path fill="none" d="M622.8972 611.0507 L663.7692 611.0507" clip-path="url(#clipPath2)" stroke="black"/>
    </g>
  </g>
</svg>
